<svg xmlns="http://www.w3.org/2000/svg" viewBox="0 0 768 768" fill="none" shape-rendering="auto"><metadata xmlns:rdf="http://www.w3.org/1999/02/22-rdf-syntax-ns#" xmlns:xsi="http://www.w3.org/2001/XMLSchema-instance" xmlns:dc="http://purl.org/dc/elements/1.1/" xmlns:dcterms="http://purl.org/dc/terms/"><rdf:RDF><rdf:Description><dc:title>ToonHead</dc:title><dc:creator>Johan Melin</dc:creator><dc:source xsi:type="dcterms:URI">https://www.figma.com/community/file/1589627891082866389</dc:source><dcterms:license xsi:type="dcterms:URI">https://creativecommons.org/licenses/by/4.0/</dcterms:license><dc:rights>Remix of „ToonHead” (https://www.figma.com/community/file/1589627891082866389) by „Johan Melin”, licensed under „CC BY 4.0” (https://creativecommons.org/licenses/by/4.0/)</dc:rights></rdf:Description></rdf:RDF></metadata><mask id="viewboxMask"><rect width="768" height="768" rx="0" ry="0" x="0" y="0" fill="#fff" /></mask><g mask="url(#viewboxMask)"><rect fill="#d1d4f9" width="768" height="768" x="0" y="0" /><g transform="translate(0 10)"><path d="M384.5 330c69.54 0 138.96 29.46 167.55 88.22 6.95 14.28 8.58 25.68 7.78 35.7-.8 10.04-4.04 18.7-6.9 27.58-2.84 8.86-5.28 17.9-4.38 28.57s5.13 22.91 15.54 38.21c2.53 3.73 3.19 7.1 2.3 10.14-.86 3.07-3.32 5.93-7.25 8.57-7.87 5.27-21.37 9.5-38.73 12.72-34.67 6.45-84.43 8.85-134.35 7.91-49.9-.93-99.93-5.21-135.14-12.13-17.6-3.46-31.46-7.57-39.73-12.22-4.14-2.33-6.8-4.75-7.9-7.22-1.05-2.41-.65-4.97 1.6-7.73 9.38-11.58 13.1-21.96 13.8-31.93s-1.6-19.5-4.2-29.3c-5.15-19.57-11.43-40.41 2.45-68.93 28.6-58.75 98.02-88.2 167.56-88.2Z" fill="#d6b370" stroke="black"/><path d="M255.76 418.4c44.19-117.2 214.44-117.2 258.63 0 5.37 14.24 6.64 25.62 6.02 35.63s-3.13 18.68-5.33 27.52-4.08 17.83-3.4 28.43c.69 10.62 3.96 22.8 12 38.06 1.96 3.72 2.48 7.1 1.8 10.18q-1.07 4.63-5.62 8.55c-6.05 5.24-16.45 9.44-29.84 12.65-26.77 6.42-65.2 8.82-103.74 7.89s-77.18-5.2-104.36-12.1c-13.6-3.4-24.27-7.5-30.64-12.1q-4.81-3.44-6.1-7.2c-.82-2.42-.5-5.01 1.24-7.8 7.26-11.5 10.12-21.84 10.66-31.75s-1.24-19.37-3.23-29.12c-4-19.51-8.85-40.32 1.88-68.8Z" fill="black" fill-opacity="0.2" stroke="black"/></g><path d="M432.5 556.5v69.45l.4.07c120.31 22.8 211.36 128.92 211.6 256.48h-520c.24-127.56 91.29-233.7 211.6-256.48l.4-.07V556.5z" fill="#5c3829" stroke="black"/><path d="M336 556h97v37s-30.58 9.4-49 9.5c-19.59.1-48-9.5-48-9.5z" fill="black" fill-opacity="0.2"/><path d="M191.5 452.5c-20-77.5 33.5-50 33.5-50C189.18 286.68 217 140 384 140s194.82 146.68 159 262.5c0 0 53.5-27.5 33.5 50-11.1 43-51 43-51 43C519.57 545.9 434 591 384 591s-135.57-45.1-141.5-95.5c0 0-39.9 0-51-43Z" fill="#5c3829" stroke="black"/><path d="M202.22 410c19.81-10.14 38.7 54.5 30 69-16.5 8.5-55-56.21-30-69m363.96 0c-19.82-10.14-38.7 54.5-30 69 16.5 8.5 55-56.21 30-69M384 469.5c-7.81 0-18-7.5-16-9.5 2-3 8.19 3 16 3s14-6 16-3c1.81 2.17-8.19 9.5-16 9.5" fill="black" fill-opacity="0.2"/><path d="M645 883H124c0-114.39 72.89-211.66 174.5-247.39 12.12-4.26 24.64-39.68 37.5-42.11 15.71 46.5 31.43 56.5 48 67 16.57-10.5 33.29-20.5 49-67 12.86 2.43 25.38 37.85 37.5 42.11C572.11 671.34 645 768.61 645 883Z" fill="#CBECF7" stroke="black"/><path d="M336.5 715 302 652l34.5 52.5L379 670zm94 0 34.5-63-34.5 52.5L389 670z" fill="black" fill-opacity="0.2"/><path d="M645 883H124a262.1 262.1 0 0 1 163-243.03C308 670 350.03 779 384.5 779S468 670 482 639.97c95.57 38.82 163 133 163 243.03Z" fill="#e8e9e6" stroke="black"/><mask id="mouthLaugh-a" style="mask-type:alpha" maskUnits="userSpaceOnUse" x="336" y="487" width="97" height="52"><path d="M384.13 487.07c19.7 0 33.7-1.33 47.46 7.54 4.36 2.81-12.42 44.35-47.46 44.35s-51.81-41.54-47.45-44.35c13.75-8.87 27.75-7.54 47.45-7.54" fill="#611519"/></mask><g mask="url(#mouthLaugh-a)"><path d="M384.13 487.07c19.7 0 33.7-1.33 47.46 7.54 4.36 2.81-12.42 44.35-47.46 44.35s-51.81-41.54-47.45-44.35c13.75-8.87 27.75-7.54 47.45-7.54" fill="#611519"/><path d="M384.13 485.3c.04 0 18.64 0 29.27 1.33 7 .87 12.86 5.32 12.86 5.32s-1.76 4.31-3.54 6.65a37 37 0 0 1-4.44 4.44s-9.37-2.44-15.52-3.1c-7.4-.8-18.6-.9-18.63-.9 0 0-11.22.09-18.62.9-6.14.66-15.5 3.09-15.53 3.1 0 0-2.95-2.5-4.43-4.44-1.79-2.34-3.55-6.64-3.55-6.65.02-.01 5.87-4.45 12.86-5.32 10.64-1.33 29.27-1.33 29.27-1.33" fill="#F6F1E4"/><path d="M384.13 519.89c.03 0 9.48.24 15.08 2.22 5.27 1.85 12.42 7.1 12.42 7.1s-5.96 6.92-11.09 9.3c-5.85 2.73-16.38 2.23-16.4 2.22 0 0-10.56.52-16.42-2.21-5.12-2.39-11.07-9.3-11.09-9.32.02-.01 7.16-5.24 12.42-7.1 5.62-1.97 15.08-2.21 15.08-2.21" fill="#E0564B"/></g><path d="m274.5 400.75-4.25 11c27.75 0 40.74 15.54 64.25 0C351.14 400.75 349 390 349 390s-2.75 16.93-41 16.93c-22.71 0-28-19-47-10zm218.59 0 4.23 11c-27.75 0-40.74 15.54-64.25 0-16.64-11-14.5-21.75-14.5-21.75s2.75 16.93 41 16.93c22.71 0 28-19 47-10z" fill="#4B2422"/><g fill="#d6b370"><path d="M306.31 309.47c13.66-6.82 33.57 3.22 37.71-10.7 4.15-13.94-33.5-13.42-48.54-4.65-12.92 7.53-27.43 28.7-24.22 29.66 3.22.95 21.82-7.7 35.05-14.3m156.46 0c-13.66-6.83-33.56 3.21-37.7-10.7-4.15-13.95 33.49-13.43 48.53-4.66 12.92 7.53 27.44 28.7 24.22 29.66-3.2.95-21.82-7.7-35.05-14.3"/><path d="M306.31 309.47c13.66-6.82 33.57 3.22 37.71-10.7 4.15-13.94-33.5-13.42-48.54-4.65-12.92 7.53-27.43 28.7-24.22 29.66 3.22.95 21.82-7.7 35.05-14.3Zm156.46 0c-13.66-6.82-33.56 3.22-37.7-10.7-4.15-13.94 33.49-13.42 48.53-4.65 12.92 7.53 27.44 28.7 24.22 29.66-3.2.95-21.82-7.7-35.05-14.3Z" stroke="black"/></g><circle cx="384" cy="123" r="122.5" fill="#d6b370" stroke="black"/><path d="M384 98.5c117.91 0 213.5 95.59 213.5 213.5 0 20.92-.7 42.62-3.24 60.97-1.27 9.17-3 17.5-5.32 24.46-2.2 6.6-4.92 11.94-8.27 15.63-1.67-4.7-3.34-8.68-6.84-11.31-3.7-2.78-9.32-4-18.83-3.25a.6.6 0 0 0-.43.16 1 1 0 0 0-.2.33q-.06.28-.05.62.02.68.23 1.93c.27 1.64.77 4.07 1.4 7.13 1.28 6.14 3.12 14.87 4.88 25.23 3.5 20.7 6.66 47.86 4.17 73.54-1.3 7.94-5.96 18.6-10.98 28.96-5 10.34-10.37 20.37-13 26.91a265 265 0 0 0-11.58 35.9c-1 4.18-1.7 7.4-2.2 9.6q-.38 1.65-.65 2.52l-.07.2q-.11-.79-.07-2.34c.06-2.32.39-5.84 1.07-10.38 1.36-9.09 4.13-22.25 8.96-38.16 2.2-7.23 7.02-15.42 11.55-24.02 4.5-8.54 8.7-17.48 9.47-26.06 2.2-24.48-.68-48.9-4.6-67.77a215 215 0 0 0-6.2-23.47 90 90 0 0 0-2.75-7.32 16 16 0 0 0-2.08-3.8l-.03-.04-.03-.02-.9-.72c-9.26-7.58-20.1-20.83-32.02-36.6-12.27-16.23-25.7-35.14-39.58-53.08-13.91-17.94-28.35-34.98-42.73-47.53s-28.78-20.7-42.58-20.7c-13.82 0-28.5 8.82-42.98 21.91-14.5 13.1-28.9 30.58-42.21 48.05a1546 1546 0 0 0-19.02 25.67c-5.98 8.2-11.56 15.86-16.61 22.43-5.06 6.57-9.58 12.04-13.44 15.9a35 35 0 0 1-5.25 4.44q-1.75 1.17-3.12 1.48c5.45-10.86 12.59-24.26 17.47-36.46 2.5-6.27 4.43-12.25 5.22-17.43.78-5.16.46-9.63-1.64-12.79l-.39-.58-.42.55c-24.14 31.12-28.06 62.6-33.03 85.54l-.1.13q-.1.18-.23.47-.28.6-.7 1.74c-.57 1.52-1.33 3.75-2.2 6.6a282 282 0 0 0-6.1 23.52c-4.16 19.38-7.75 45.03-5.72 69.85.65 7.96 4.72 17.07 9.06 25.87 4.37 8.84 9 17.35 10.96 24.23 4.61 16.27 7.24 29.17 8.6 37.91.67 4.37 1.02 7.7 1.14 9.88q.04.7.04 1.22l-.48-1.67c-.6-2.1-1.43-5.24-2.6-9.33-2.33-8.19-6-20.3-11.75-36.32-2.5-6.94-7.9-16.05-12.89-25.3-5-9.32-9.6-18.8-10.58-26.6-3.35-26.28-.6-53.78 2.8-74.78 1.7-10.5 3.55-19.38 4.9-25.66.67-3.14 1.21-5.64 1.54-7.37q.25-1.3.32-2.04.05-.37.02-.63 0-.13-.06-.29a.6.6 0 0 0-.36-.35c-4.82-1.69-10.16-1.96-15.04 1.68-4.77 3.55-9 10.76-11.96 23.74-4.26-2.6-7.75-7.43-10.6-14.1-2.96-6.95-5.18-15.83-6.82-26.06-3.28-20.46-4.24-46.22-4.24-72.57 0-117.9 100.57-213.5 218.5-213.5Z" fill="#d6b370" stroke="black"/></g></svg>